# xmcd
#
# Track frame offsets:
# 150
# 30280
# 62447
# 83877
# 104415
# 133622
# 154702
# 169152
# 197035
# 215060
# 240447
# 267195
# 291855
# 311345
#
# Disc length: 4166 seconds
#
#
# Revision: 0
# Processed by: cddbd v1.5.2PL0 Copyright (c) Steve Scherf et al.
# Submitted via: FreeRIP 2.944 
#
DISCID=bb10440e
DTITLE=McMurtry-L-Berry4 - Folly-Glory5
DYEAR=2004
DGENRE=Booty Bass
TTITLE0=FG 501
TTITLE1=FG 502
TTITLE2=FG 503
TTITLE3=FG 504
TTITLE4=FG 505
TTITLE5=FG 506
TTITLE6=FG 507
TTITLE7=FG 508
TTITLE8=FG 509
TTITLE9=FG 510
TTITLE10=FG 511
TTITLE11=FG 512
TTITLE12=FG 513
TTITLE13=FG 514
EXTD=Folly and Glory by Larry McMurtry 7 CDs 2004\n4th Berrybender Narrative Simon and Schuster\nread by Alfred Molina - Booty - country
EXTT0=
EXTT1=
EXTT2=
EXTT3=
EXTT4=
EXTT5=
EXTT6=
EXTT7=
EXTT8=
EXTT9=
EXTT10=
EXTT11=
EXTT12=
EXTT13=
PLAYORDER=
